<svg version="1.1" id="Layer_1" xmlns="http://www.w3.org/2000/svg" xmlns:xlink="http://www.w3.org/1999/xlink" x="0px" y="0px"
	 width="100%" viewBox="0 0 280 280" enable-background="new 0 0 280 280" xml:space="preserve">
<path fill="#30404A" opacity="000000" stroke="none" 
	d="
M159.000000,281.000000 
	C106.000000,281.000000 53.500000,281.000000 1.000000,281.000000 
	C1.000000,187.666672 1.000000,94.333336 1.000000,1.000000 
	C94.333336,1.000000 187.666672,1.000000 281.000000,1.000000 
	C281.000000,94.333336 281.000000,187.666672 281.000000,281.000000 
	C240.500000,281.000000 200.000000,281.000000 159.000000,281.000000 
M69.494690,217.417755 
	C70.609398,218.819687 71.525940,221.027252 72.902206,221.365784 
	C73.981377,221.631226 75.920387,219.810501 76.941002,218.499130 
	C77.917542,217.244385 78.257523,215.469528 78.782127,213.891632 
	C83.300186,200.302307 87.866356,186.728226 92.248940,173.095184 
	C93.300583,169.823792 94.989914,168.142258 98.542091,167.863113 
	C109.832863,166.975845 121.119240,165.980804 132.376831,164.748932 
	C136.779358,164.267181 139.074234,165.585922 140.353851,169.997345 
	C144.621628,184.710495 149.212433,199.330231 153.720139,213.973251 
	C154.616272,216.884293 154.964874,221.421524 159.108749,220.319595 
	C163.698486,219.099106 161.559280,214.837021 160.647781,211.825012 
	C151.724045,182.336807 142.797791,152.848618 133.663116,123.425346 
	C130.059647,111.818344 126.013466,100.345055 121.946503,88.889824 
	C121.362389,87.244576 119.586014,85.009247 118.246559,84.927437 
	C116.877014,84.843781 114.938583,86.815910 114.011574,88.349091 
	C112.388420,91.033600 111.112625,93.990463 110.099197,96.971870 
	C96.541595,136.856888 83.054779,176.765945 69.494690,217.417755 
M47.226192,118.501076 
	C46.656525,156.623566 46.085949,194.746048 45.517998,232.868576 
	C45.412071,239.978729 46.459797,241.349106 53.465294,241.047409 
	C85.571747,239.664703 117.670296,238.098663 149.771164,236.587311 
	C150.599503,236.548309 151.679123,236.672424 152.195740,236.215942 
	C153.443756,235.113174 155.340454,233.655640 155.266556,232.445480 
	C155.189407,231.182114 153.296829,229.425034 151.864456,228.995361 
	C149.880325,228.400162 147.580307,228.751541 145.423172,228.855682 
	C116.980957,230.228714 88.542534,231.683029 60.096909,232.980057 
	C54.124622,233.252380 53.694965,232.406906 53.827606,226.389236 
	C54.337494,203.256622 54.767277,180.122177 55.192642,156.987793 
	C55.740547,127.189339 56.265438,97.390465 56.768452,67.591232 
	C56.815948,64.777359 57.161041,61.287773 53.222473,61.033154 
	C49.230423,60.775078 49.130604,64.222412 49.023438,67.077782 
	C48.392673,83.884270 47.822262,100.693016 47.226192,118.501076 
M224.479309,55.952141 
	C226.144699,55.901421 227.809769,55.832382 229.475540,55.803154 
	C236.728394,55.675896 237.086670,55.996712 236.881561,63.344261 
	C236.518997,76.332382 235.948685,89.316170 235.719040,102.306252 
	C235.165573,133.614563 234.738602,164.925232 234.341217,196.235962 
	C234.316620,198.173615 234.627701,200.301651 235.475037,201.994507 
	C235.984222,203.011749 237.856110,203.879196 239.078354,203.832825 
	C239.997147,203.797958 241.186157,202.344254 241.652817,201.262482 
	C242.149780,200.110428 241.999741,198.653992 242.027084,197.328293 
	C242.998734,150.198486 243.939255,103.068024 244.939041,55.938820 
	C245.091461,48.753780 244.381027,47.856899 237.107101,47.945232 
	C199.454529,48.402466 161.802216,48.880512 124.150124,49.375450 
	C122.493248,49.397224 120.612137,49.217018 119.247620,49.925114 
	C117.856842,50.646835 116.106758,52.363941 116.126457,53.619930 
	C116.144539,54.772511 118.154892,56.200047 119.582771,56.923904 
	C120.654861,57.467400 122.195503,57.127682 123.526787,57.112835 
	C156.846344,56.741219 190.165787,56.360516 224.479309,55.952141 
M166.358276,89.332153 
	C181.011795,88.890808 195.673325,88.602211 210.309708,87.834175 
	C212.371948,87.725952 215.777908,85.485565 216.009796,83.866547 
	C216.532501,80.217369 212.956985,80.163231 210.310074,80.244560 
	C190.494049,80.853416 170.676392,81.456650 150.872910,82.361183 
	C148.586029,82.465630 146.383087,84.407288 144.141220,85.497147 
	C145.430328,87.474388 146.359207,89.860733 148.065979,91.363647 
	C160.814590,102.589554 173.734161,113.621117 186.547043,124.774574 
	C187.944794,125.991302 189.005798,127.594864 190.981110,129.905975 
	C187.829590,130.237030 185.919373,130.540115 183.999680,130.622498 
	C172.514313,131.115356 161.014893,131.386948 149.551697,132.185181 
	C147.652695,132.317398 144.595642,134.477982 144.358688,136.046432 
	C143.817398,139.629044 147.128738,140.015213 149.891312,139.952927 
	C166.380600,139.581238 182.871338,139.219666 199.352219,138.604004 
	C201.223022,138.534119 204.120148,137.276947 204.600937,135.895157 
	C205.205444,134.157791 204.269882,131.439178 203.165176,129.662292 
	C201.697632,127.301796 199.569534,125.281601 197.474335,123.393639 
	C187.206863,114.141708 176.852081,104.986725 166.538864,95.785492 
	C164.865723,94.292740 163.246307,92.739754 160.951767,90.611420 
	C163.124374,90.049652 164.334808,89.736671 166.358276,89.332153 
M195.609512,203.273849 
	C195.817764,202.151321 196.406082,200.943634 196.176514,199.919220 
	C193.312958,187.140503 190.433258,174.362518 187.228638,161.667404 
	C186.888702,160.320694 184.465485,159.499893 183.008759,158.435104 
	C182.085754,160.178726 180.093246,162.149521 180.407761,163.630280 
	C183.093842,176.276321 186.099564,188.858353 189.253159,201.398285 
	C189.966202,204.233612 191.876923,206.216064 195.609512,203.273849 
M164.819519,198.762497 
	C165.128754,199.883270 165.136429,201.252197 165.811203,202.072159 
	C167.138672,203.685303 168.836716,204.993530 170.381470,206.427887 
	C171.177948,204.339767 172.653427,202.236618 172.607681,200.167099 
	C172.543182,197.249222 171.371933,194.351303 170.639359,191.453568 
	C168.400726,182.598434 166.326828,173.693756 163.733673,164.943237 
	C163.253723,163.323654 160.652100,162.332809 159.029724,161.051773 
	C158.312988,162.882980 157.339005,164.664581 156.972672,166.563385 
	C156.740173,167.768509 157.363113,169.160141 157.685242,170.447388 
	C159.983215,179.630096 162.302505,188.807480 164.819519,198.762497 
z"/>
<path fill="#030507" opacity="1.000000" stroke="none" 
	d="
M69.522530,217.043396 
	C83.054779,176.765945 96.541595,136.856888 110.099197,96.971870 
	C111.112625,93.990463 112.388420,91.033600 114.011574,88.349091 
	C114.938583,86.815910 116.877014,84.843781 118.246559,84.927437 
	C119.586014,85.009247 121.362389,87.244576 121.946503,88.889824 
	C126.013466,100.345055 130.059647,111.818344 133.663116,123.425346 
	C142.797791,152.848618 151.724045,182.336807 160.647781,211.825012 
	C161.559280,214.837021 163.698486,219.099106 159.108749,220.319595 
	C154.964874,221.421524 154.616272,216.884293 153.720139,213.973251 
	C149.212433,199.330231 144.621628,184.710495 140.353851,169.997345 
	C139.074234,165.585922 136.779358,164.267181 132.376831,164.748932 
	C121.119240,165.980804 109.832863,166.975845 98.542091,167.863113 
	C94.989914,168.142258 93.300583,169.823792 92.248940,173.095184 
	C87.866356,186.728226 83.300186,200.302307 78.782127,213.891632 
	C78.257523,215.469528 77.917542,217.244385 76.941002,218.499130 
	C75.920387,219.810501 73.981377,221.631226 72.902206,221.365784 
	C71.525940,221.027252 70.609398,218.819687 69.522530,217.043396 
M97.812729,158.798248 
	C99.405914,159.026215 101.025047,159.562744 102.588005,159.431320 
	C111.694710,158.665482 120.793724,157.795837 129.884155,156.853378 
	C135.304535,156.291412 135.855392,155.499374 134.074249,150.103119 
	C129.283249,135.587967 124.360710,121.116104 119.447929,106.641457 
	C119.006607,105.341194 118.257690,104.145332 117.085861,101.739349 
	C115.703606,104.795845 114.718506,106.640785 114.014481,108.587387 
	C110.567863,118.117134 107.071976,127.632179 103.839668,137.235275 
	C101.515656,144.139862 99.578712,151.174744 97.812729,158.798248 
z"/>
<path fill="#030406" opacity="1.000000" stroke="none" 
	d="
M47.228851,118.001038 
	C47.822262,100.693016 48.392673,83.884270 49.023438,67.077782 
	C49.130604,64.222412 49.230423,60.775078 53.222473,61.033154 
	C57.161041,61.287773 56.815948,64.777359 56.768452,67.591232 
	C56.265438,97.390465 55.740547,127.189339 55.192642,156.987793 
	C54.767277,180.122177 54.337494,203.256622 53.827606,226.389236 
	C53.694965,232.406906 54.124622,233.252380 60.096909,232.980057 
	C88.542534,231.683029 116.980957,230.228714 145.423172,228.855682 
	C147.580307,228.751541 149.880325,228.400162 151.864456,228.995361 
	C153.296829,229.425034 155.189407,231.182114 155.266556,232.445480 
	C155.340454,233.655640 153.443756,235.113174 152.195740,236.215942 
	C151.679123,236.672424 150.599503,236.548309 149.771164,236.587311 
	C117.670296,238.098663 85.571747,239.664703 53.465294,241.047409 
	C46.459797,241.349106 45.412071,239.978729 45.517998,232.868576 
	C46.085949,194.746048 46.656525,156.623566 47.228851,118.001038 
z"/>
<path fill="#020407" opacity="1.000000" stroke="none" 
	d="
M223.982285,55.966782 
	C190.165787,56.360516 156.846344,56.741219 123.526787,57.112835 
	C122.195503,57.127682 120.654861,57.467400 119.582771,56.923904 
	C118.154892,56.200047 116.144539,54.772511 116.126457,53.619930 
	C116.106758,52.363941 117.856842,50.646835 119.247620,49.925114 
	C120.612137,49.217018 122.493248,49.397224 124.150124,49.375450 
	C161.802216,48.880512 199.454529,48.402466 237.107101,47.945232 
	C244.381027,47.856899 245.091461,48.753780 244.939041,55.938820 
	C243.939255,103.068024 242.998734,150.198486 242.027084,197.328293 
	C241.999741,198.653992 242.149780,200.110428 241.652817,201.262482 
	C241.186157,202.344254 239.997147,203.797958 239.078354,203.832825 
	C237.856110,203.879196 235.984222,203.011749 235.475037,201.994507 
	C234.627701,200.301651 234.316620,198.173615 234.341217,196.235962 
	C234.738602,164.925232 235.165573,133.614563 235.719040,102.306252 
	C235.948685,89.316170 236.518997,76.332382 236.881561,63.344261 
	C237.086670,55.996712 236.728394,55.675896 229.475540,55.803154 
	C227.809769,55.832382 226.144699,55.901421 223.982285,55.966782 
z"/>
<path fill="#030406" opacity="1.000000" stroke="none" 
	d="
M165.951767,89.377922 
	C164.334808,89.736671 163.124374,90.049652 160.951767,90.611420 
	C163.246307,92.739754 164.865723,94.292740 166.538864,95.785492 
	C176.852081,104.986725 187.206863,114.141708 197.474335,123.393639 
	C199.569534,125.281601 201.697632,127.301796 203.165176,129.662292 
	C204.269882,131.439178 205.205444,134.157791 204.600937,135.895157 
	C204.120148,137.276947 201.223022,138.534119 199.352219,138.604004 
	C182.871338,139.219666 166.380600,139.581238 149.891312,139.952927 
	C147.128738,140.015213 143.817398,139.629044 144.358688,136.046432 
	C144.595642,134.477982 147.652695,132.317398 149.551697,132.185181 
	C161.014893,131.386948 172.514313,131.115356 183.999680,130.622498 
	C185.919373,130.540115 187.829590,130.237030 190.981110,129.905975 
	C189.005798,127.594864 187.944794,125.991302 186.547043,124.774574 
	C173.734161,113.621117 160.814590,102.589554 148.065979,91.363647 
	C146.359207,89.860733 145.430328,87.474388 144.141220,85.497147 
	C146.383087,84.407288 148.586029,82.465630 150.872910,82.361183 
	C170.676392,81.456650 190.494049,80.853416 210.310074,80.244560 
	C212.956985,80.163231 216.532501,80.217369 216.009796,83.866547 
	C215.777908,85.485565 212.371948,87.725952 210.309708,87.834175 
	C195.673325,88.602211 181.011795,88.890808 165.951767,89.377922 
z"/>
<path fill="#030408" opacity="1.000000" stroke="none" 
	d="
M195.383362,203.551590 
	C191.876923,206.216064 189.966202,204.233612 189.253159,201.398285 
	C186.099564,188.858353 183.093842,176.276321 180.407761,163.630280 
	C180.093246,162.149521 182.085754,160.178726 183.008759,158.435104 
	C184.465485,159.499893 186.888702,160.320694 187.228638,161.667404 
	C190.433258,174.362518 193.312958,187.140503 196.176514,199.919220 
	C196.406082,200.943634 195.817764,202.151321 195.383362,203.551590 
z"/>
<path fill="#030508" opacity="1.000000" stroke="none" 
	d="
M164.717255,198.374527 
	C162.302505,188.807480 159.983215,179.630096 157.685242,170.447388 
	C157.363113,169.160141 156.740173,167.768509 156.972672,166.563385 
	C157.339005,164.664581 158.312988,162.882980 159.029724,161.051773 
	C160.652100,162.332809 163.253723,163.323654 163.733673,164.943237 
	C166.326828,173.693756 168.400726,182.598434 170.639359,191.453568 
	C171.371933,194.351303 172.543182,197.249222 172.607681,200.167099 
	C172.653427,202.236618 171.177948,204.339767 170.381470,206.427887 
	C168.836716,204.993530 167.138672,203.685303 165.811203,202.072159 
	C165.136429,201.252197 165.128754,199.883270 164.717255,198.374527 
z"/>
<path fill="#303F49" opacity="000000" stroke="none" 
	d="
M97.640923,158.474884 
	C99.578712,151.174744 101.515656,144.139862 103.839668,137.235275 
	C107.071976,127.632179 110.567863,118.117134 114.014481,108.587387 
	C114.718506,106.640785 115.703606,104.795845 117.085861,101.739349 
	C118.257690,104.145332 119.006607,105.341194 119.447929,106.641457 
	C124.360710,121.116104 129.283249,135.587967 134.074249,150.103119 
	C135.855392,155.499374 135.304535,156.291412 129.884155,156.853378 
	C120.793724,157.795837 111.694710,158.665482 102.588005,159.431320 
	C101.025047,159.562744 99.405914,159.026215 97.640923,158.474884 
z"/>
</svg>